<mxfile host="Electron" modified="2023-11-28T19:45:05.024Z" agent="Mozilla/5.0 (Windows NT 10.0; Win64; x64) AppleWebKit/537.36 (KHTML, like Gecko) draw.io/21.7.5 Chrome/114.0.5735.289 Electron/25.8.1 Safari/537.36" etag="iv4opLQzw71Ailq_oCg6" version="21.7.5" type="device">
  <diagram name="Сторінка-1" id="pq9HeR3eE5r-1pUYb5ZU">
    <mxGraphModel dx="909" dy="1276" grid="1" gridSize="10" guides="1" tooltips="1" connect="1" arrows="1" fold="1" page="1" pageScale="1" pageWidth="827" pageHeight="1169" math="0" shadow="0">
      <root>
        <mxCell id="0" />
        <mxCell id="1" parent="0" />
        <mxCell id="JrJzBRp17og9ouEaUFcQ-21" value="" style="edgeStyle=orthogonalEdgeStyle;rounded=0;orthogonalLoop=1;jettySize=auto;html=1;" edge="1" parent="1" source="JrJzBRp17og9ouEaUFcQ-1" target="JrJzBRp17og9ouEaUFcQ-16">
          <mxGeometry relative="1" as="geometry" />
        </mxCell>
        <mxCell id="JrJzBRp17og9ouEaUFcQ-1" value="Start" style="ellipse;whiteSpace=wrap;html=1;" vertex="1" parent="1">
          <mxGeometry x="50" y="180" width="120" height="50" as="geometry" />
        </mxCell>
        <mxCell id="JrJzBRp17og9ouEaUFcQ-2" value="Factorial" style="ellipse;whiteSpace=wrap;html=1;" vertex="1" parent="1">
          <mxGeometry x="190" y="440" width="80" height="80" as="geometry" />
        </mxCell>
        <mxCell id="JrJzBRp17og9ouEaUFcQ-10" value="" style="edgeStyle=orthogonalEdgeStyle;rounded=0;orthogonalLoop=1;jettySize=auto;html=1;" edge="1" parent="1" source="JrJzBRp17og9ouEaUFcQ-4" target="JrJzBRp17og9ouEaUFcQ-9">
          <mxGeometry relative="1" as="geometry" />
        </mxCell>
        <mxCell id="JrJzBRp17og9ouEaUFcQ-4" value="Factorial" style="ellipse;whiteSpace=wrap;html=1;" vertex="1" parent="1">
          <mxGeometry x="370" y="60" width="80" height="80" as="geometry" />
        </mxCell>
        <mxCell id="JrJzBRp17og9ouEaUFcQ-13" value="" style="edgeStyle=orthogonalEdgeStyle;rounded=0;orthogonalLoop=1;jettySize=auto;html=1;" edge="1" parent="1" source="JrJzBRp17og9ouEaUFcQ-5" target="JrJzBRp17og9ouEaUFcQ-12">
          <mxGeometry relative="1" as="geometry" />
        </mxCell>
        <mxCell id="JrJzBRp17og9ouEaUFcQ-5" value="for i &amp;lt; n" style="shape=trapezoid;perimeter=trapezoidPerimeter;whiteSpace=wrap;html=1;fixedSize=1;" vertex="1" parent="1">
          <mxGeometry x="350" y="250" width="120" height="60" as="geometry" />
        </mxCell>
        <mxCell id="JrJzBRp17og9ouEaUFcQ-11" value="" style="edgeStyle=orthogonalEdgeStyle;rounded=0;orthogonalLoop=1;jettySize=auto;html=1;" edge="1" parent="1" source="JrJzBRp17og9ouEaUFcQ-9" target="JrJzBRp17og9ouEaUFcQ-5">
          <mxGeometry relative="1" as="geometry" />
        </mxCell>
        <mxCell id="JrJzBRp17og9ouEaUFcQ-9" value="int n;" style="shape=parallelogram;perimeter=parallelogramPerimeter;whiteSpace=wrap;html=1;fixedSize=1;" vertex="1" parent="1">
          <mxGeometry x="350" y="170" width="120" height="60" as="geometry" />
        </mxCell>
        <mxCell id="JrJzBRp17og9ouEaUFcQ-15" value="" style="edgeStyle=orthogonalEdgeStyle;rounded=0;orthogonalLoop=1;jettySize=auto;html=1;" edge="1" parent="1" source="JrJzBRp17og9ouEaUFcQ-12" target="JrJzBRp17og9ouEaUFcQ-14">
          <mxGeometry relative="1" as="geometry" />
        </mxCell>
        <mxCell id="JrJzBRp17og9ouEaUFcQ-12" value="factorial (n) *= i" style="rounded=1;whiteSpace=wrap;html=1;" vertex="1" parent="1">
          <mxGeometry x="350" y="330" width="120" height="60" as="geometry" />
        </mxCell>
        <mxCell id="JrJzBRp17og9ouEaUFcQ-14" value="" style="shape=trapezoid;perimeter=trapezoidPerimeter;whiteSpace=wrap;html=1;fixedSize=1;rotation=-180;" vertex="1" parent="1">
          <mxGeometry x="350" y="410" width="120" height="60" as="geometry" />
        </mxCell>
        <mxCell id="JrJzBRp17og9ouEaUFcQ-19" value="" style="edgeStyle=orthogonalEdgeStyle;rounded=0;orthogonalLoop=1;jettySize=auto;html=1;" edge="1" parent="1" source="JrJzBRp17og9ouEaUFcQ-16" target="JrJzBRp17og9ouEaUFcQ-18">
          <mxGeometry relative="1" as="geometry" />
        </mxCell>
        <mxCell id="JrJzBRp17og9ouEaUFcQ-16" value="int n;" style="shape=parallelogram;perimeter=parallelogramPerimeter;whiteSpace=wrap;html=1;fixedSize=1;" vertex="1" parent="1">
          <mxGeometry x="50" y="310" width="120" height="60" as="geometry" />
        </mxCell>
        <mxCell id="JrJzBRp17og9ouEaUFcQ-20" value="" style="edgeStyle=orthogonalEdgeStyle;rounded=0;orthogonalLoop=1;jettySize=auto;html=1;" edge="1" parent="1" source="JrJzBRp17og9ouEaUFcQ-18" target="JrJzBRp17og9ouEaUFcQ-2">
          <mxGeometry relative="1" as="geometry" />
        </mxCell>
        <mxCell id="JrJzBRp17og9ouEaUFcQ-23" value="" style="edgeStyle=orthogonalEdgeStyle;rounded=0;orthogonalLoop=1;jettySize=auto;html=1;" edge="1" parent="1" source="JrJzBRp17og9ouEaUFcQ-18" target="JrJzBRp17og9ouEaUFcQ-22">
          <mxGeometry relative="1" as="geometry" />
        </mxCell>
        <mxCell id="JrJzBRp17og9ouEaUFcQ-18" value="double num1 = 2^n * factorial(n)" style="rounded=1;whiteSpace=wrap;html=1;" vertex="1" parent="1">
          <mxGeometry x="50" y="450" width="120" height="60" as="geometry" />
        </mxCell>
        <mxCell id="JrJzBRp17og9ouEaUFcQ-25" value="" style="edgeStyle=orthogonalEdgeStyle;rounded=0;orthogonalLoop=1;jettySize=auto;html=1;" edge="1" parent="1" source="JrJzBRp17og9ouEaUFcQ-22" target="JrJzBRp17og9ouEaUFcQ-24">
          <mxGeometry relative="1" as="geometry" />
        </mxCell>
        <mxCell id="JrJzBRp17og9ouEaUFcQ-22" value="double n^n" style="whiteSpace=wrap;html=1;rounded=1;" vertex="1" parent="1">
          <mxGeometry x="50" y="590" width="120" height="60" as="geometry" />
        </mxCell>
        <mxCell id="JrJzBRp17og9ouEaUFcQ-29" value="" style="edgeStyle=orthogonalEdgeStyle;rounded=0;orthogonalLoop=1;jettySize=auto;html=1;" edge="1" parent="1" source="JrJzBRp17og9ouEaUFcQ-24" target="JrJzBRp17og9ouEaUFcQ-28">
          <mxGeometry relative="1" as="geometry" />
        </mxCell>
        <mxCell id="JrJzBRp17og9ouEaUFcQ-24" value="num1/num2" style="whiteSpace=wrap;html=1;rounded=1;" vertex="1" parent="1">
          <mxGeometry x="50" y="730" width="120" height="60" as="geometry" />
        </mxCell>
        <mxCell id="JrJzBRp17og9ouEaUFcQ-31" value="" style="edgeStyle=orthogonalEdgeStyle;rounded=0;orthogonalLoop=1;jettySize=auto;html=1;" edge="1" parent="1" source="JrJzBRp17og9ouEaUFcQ-28" target="JrJzBRp17og9ouEaUFcQ-30">
          <mxGeometry relative="1" as="geometry" />
        </mxCell>
        <mxCell id="JrJzBRp17og9ouEaUFcQ-28" value="cout Result" style="shape=parallelogram;perimeter=parallelogramPerimeter;whiteSpace=wrap;html=1;fixedSize=1;" vertex="1" parent="1">
          <mxGeometry x="50" y="820" width="120" height="60" as="geometry" />
        </mxCell>
        <mxCell id="JrJzBRp17og9ouEaUFcQ-30" value="End" style="ellipse;whiteSpace=wrap;html=1;" vertex="1" parent="1">
          <mxGeometry x="50" y="900" width="120" height="50" as="geometry" />
        </mxCell>
      </root>
    </mxGraphModel>
  </diagram>
</mxfile>
